<?xml version="1.0" encoding="utf-8"?><!-- Uploaded to: SVG Repo, www.svgrepo.com, Generator: SVG Repo Mixer Tools -->
<svg width="800px" height="800px" viewBox="0 0 400 400" fill="none" xmlns="http://www.w3.org/2000/svg">
<path d="M200.954 261.751C193.257 259.938 140.688 237.315 152.256 221.792C164.775 204.989 198.287 259.61 202.544 261.751C210.392 265.701 206.165 244.378 209.424 236.178C211.67 230.532 250.457 203.165 251.242 204.744C253.075 208.434 223.027 259.192 209.955 261.219" stroke="#000000" stroke-opacity="0.9" stroke-width="16" stroke-linecap="round" stroke-linejoin="round"/>
<path d="M192.93 310.67C185.725 307.898 137.961 280.758 151.357 270.308C165.855 258.994 190.647 308.498 194.471 310.943C201.521 315.454 200.425 297.647 204.738 291.637C207.709 287.499 249.152 272.23 249.69 273.629C250.948 276.9 214.683 312.407 201.728 311.788" stroke="#000000" stroke-opacity="0.9" stroke-width="16" stroke-linecap="round" stroke-linejoin="round"/>
<path d="M170.345 177.136C195.434 241.929 230.282 192.667 169.783 172.704" stroke="#000000" stroke-opacity="0.9" stroke-width="16" stroke-linecap="round" stroke-linejoin="round"/>
<path d="M236.9 177.5C187.091 188.443 197.087 232.133 238.531 178.59" stroke="#000000" stroke-opacity="0.9" stroke-width="16" stroke-linecap="round" stroke-linejoin="round"/>
<path d="M172.983 142.327C217.877 143.997 199.409 180.721 172.983 142.831" stroke="#000000" stroke-opacity="0.9" stroke-width="16" stroke-linecap="round" stroke-linejoin="round"/>
<path d="M177.779 105.556C222.673 107.225 204.205 143.949 177.779 106.06" stroke="#000000" stroke-opacity="0.9" stroke-width="16" stroke-linecap="round" stroke-linejoin="round"/>
<path d="M234.337 142.327C201.513 144.308 210.194 172.791 235.332 143.708" stroke="#000000" stroke-opacity="0.9" stroke-width="16" stroke-linecap="round" stroke-linejoin="round"/>
<path d="M231.639 107.154C215.227 109.575 219.568 144.388 232.137 108.842" stroke="#000000" stroke-opacity="0.9" stroke-width="16" stroke-linecap="round" stroke-linejoin="round"/>
<path d="M212.123 48C186.083 93.4222 227.542 110.948 215.495 52.1166" stroke="#000000" stroke-opacity="0.9" stroke-width="16" stroke-linecap="round" stroke-linejoin="round"/>
<path d="M211.349 89.5679C211.706 173.548 182.401 269.414 211.349 351.765" stroke="#000000" stroke-opacity="0.9" stroke-width="16" stroke-linecap="round" stroke-linejoin="round"/>
</svg>