<?xml version="1.0" encoding="utf-8"?>
<!-- Uploaded to: SVG Repo, www.svgrepo.com, Generator: SVG Repo Mixer Tools -->
<svg fill="#000000" height="800px" width="800px" version="1.2" baseProfile="tiny" id="Layer_1" xmlns="http://www.w3.org/2000/svg" xmlns:xlink="http://www.w3.org/1999/xlink"
	  viewBox="-205 51 256 256" xml:space="preserve">
<path d="M-119.7,183.3v-9.7v-9.7h-0.3h-16.8v9.7h-5.4v-9.7H-159v9.7h-5.4v-9.7h-16.8v9.7h-5.4v-9.7h-16.8v19.4h83.5H-119.7z
	 M-33.9,223.5H-46v-16.8h-16.8v16.8h-5.7h0v-16.8h-0.3h-16.5h-0.3v16.8h0h-5.7v-16.8h-16.8v16.8h-12.1v-33.6h-82.9v105.5h118.2h16.5
	H49.6V189.8h-83.5V223.5z M-153.6,256.5h-15.7v-15.7h15.7V256.5z M-0.6,240.8h15.7v15.7H-0.6V240.8z M-190.7,136.2v21.1h25.7h6.3
	h0.3h25.7h0.3v-21.1c-10.3-1.4-20.2-7.7-29.1-13.7C-170.4,128.5-180.1,134.8-190.7,136.2z M-161.6,110.3
	c6.3,8.3,19.4,20.2,40.8,20.2v-8.8c-26.5,0-37.3-21.9-37.9-22.8h-6c-0.6,0.9-11.1,22.8-37.9,22.8v8.8
	C-181,130.5-168.2,118.6-161.6,110.3z M49,163.9H32.2v9.7h-5.4v-9.7H10v9.7H4.6v-9.7h-16.8v9.7h-5.4v-9.7h-16.8v19.4H49h0.3v-9.7
	v-9.7H49z M-21.6,136.2v21.1H4h6.3h0.3h25.4h0.3v-21.1C26,134.8,16,128.5,7.1,122.6C-1.4,128.5-11.1,134.8-21.6,136.2z M7.4,110.3
	c6.3,8.3,19.4,20.2,40.8,20.2v-8.8c-26.5,0-37.3-21.9-37.9-22.8h-6c-0.6,0.9-11.1,22.8-37.9,22.8v8.8
	C-11.7,130.5,1.2,118.6,7.4,110.3z"/>
</svg>