<?xml version="1.0" encoding="iso-8859-1"?>
<!-- Uploaded to: SVG Repo, www.svgrepo.com, Generator: SVG Repo Mixer Tools -->
<!DOCTYPE svg PUBLIC "-//W3C//DTD SVG 1.1//EN" "http://www.w3.org/Graphics/SVG/1.1/DTD/svg11.dtd">
<svg fill="#000000" version="1.1" id="Capa_1" xmlns="http://www.w3.org/2000/svg" xmlns:xlink="http://www.w3.org/1999/xlink" 
	 width="800px" height="800px" viewBox="0 0 25.992 25.991"
	 xml:space="preserve">
<g>
	<path d="M6.227,11.804c2.134,0,3.449-0.313,3.949-0.941c0.499-0.626,0.749-2.282,0.749-4.965c0-2.679-0.25-4.331-0.749-4.958
		C9.676,0.313,8.361,0,6.227,0C4.094,0,2.778,0.313,2.279,0.94C1.779,1.567,1.53,3.219,1.53,5.898c0,2.678,0.249,4.331,0.749,4.961
		C2.778,11.488,4.095,11.804,6.227,11.804z M3.725,4.381c0-1.083,0.135-1.77,0.404-2.06c0.27-0.289,0.912-0.434,1.928-0.434
		c1.339,0,2.122,0.168,2.349,0.502c0.228,0.335,0.341,1.48,0.341,3.438c0,1.94-0.119,3.106-0.357,3.498
		C8.151,9.717,7.438,9.912,6.252,9.912c-1.14,0-1.847-0.139-2.119-0.417C3.863,9.217,3.726,8.491,3.726,7.316L3.708,5.903
		L3.725,4.381z M24.364,15.126c-0.5-0.627-1.815-0.938-3.949-0.938c-2.133,0-3.448,0.312-3.948,0.938s-0.748,2.279-0.748,4.959
		c0,2.679,0.248,4.33,0.748,4.961c0.5,0.63,1.815,0.945,3.948,0.945c2.134,0,3.449-0.313,3.949-0.94
		c0.499-0.627,0.749-2.283,0.749-4.966C25.113,17.405,24.863,15.753,24.364,15.126z M22.577,23.516
		c-0.238,0.393-0.951,0.586-2.138,0.586c-1.139,0-1.846-0.14-2.118-0.416c-0.271-0.277-0.408-1.004-0.408-2.181l-0.017-1.411
		l0.017-1.523c0-1.082,0.135-1.77,0.403-2.061c0.271-0.289,0.912-0.435,1.929-0.435c1.339,0,2.122,0.168,2.349,0.502
		c0.229,0.336,0.342,1.479,0.342,3.438C22.933,21.956,22.814,23.122,22.577,23.516z M21.863,6.15L3.045,24.967l-2.167-2.166
		L19.696,3.983l-2.632-2.632h7.432v7.432L21.863,6.15z"/>
</g>
</svg>