<?xml version="1.0" encoding="iso-8859-1"?>
<!-- Uploaded to: SVG Repo, www.svgrepo.com, Generator: SVG Repo Mixer Tools -->
<!DOCTYPE svg PUBLIC "-//W3C//DTD SVG 1.1//EN" "http://www.w3.org/Graphics/SVG/1.1/DTD/svg11.dtd">
<svg fill="#000000" version="1.1" id="Capa_1" xmlns="http://www.w3.org/2000/svg" xmlns:xlink="http://www.w3.org/1999/xlink" 
	 width="800px" height="800px" viewBox="0 0 45.001 45.001"
	 xml:space="preserve">
<g>
	<g>
		<g>
			<path d="M41.064,29.147c-0.817-0.878-2.496-2.431-4.548-2.978c-1.217-0.324-1.842-0.771-2.031-0.988
				c0.512-0.332,0.787-0.989,0.654-1.575c-0.133-0.574-0.623-0.939-1.316-0.976c-0.18-0.01-0.371-0.011-0.574-0.014
				c-1.136-0.016-2.547-0.035-3.952-1.344c-1.136-1.057-1.464-2.257-1.761-3.317c-0.141-0.518-0.273-1.006-0.487-1.433
				c-0.487-0.979-1.269-1.33-2.166-1.735c-0.405-0.184-0.864-0.39-1.349-0.681c-0.425-0.254-0.663-0.544-0.708-0.865
				c-0.083-0.563,0.412-1.158,0.565-1.327c0.728-0.803-0.12-1.869-0.801-2.727c-0.17-0.214-0.334-0.419-0.462-0.607
				c0.339-0.35,2.084-0.902,3.509-0.902c0.23,0,0.435,0.018,0.584,0.051c0.441,0.097,0.816-0.041,1.042-0.365
				c0.63-0.917-0.229-3.365-0.508-4.093c-0.339-0.891-1.509-0.911-2.64-0.931c-0.347-0.007-0.699-0.011-1.028-0.043
				c-0.449-0.043-0.558-0.313-0.657-1.1c-0.043-0.344-0.08-0.641-0.244-0.87C21.983,0.039,21.583,0,21.218,0
				C20,0,17.471,0.557,16.438,0.826c-0.822,0.215-1.491,0.862-2.201,1.548c-0.687,0.663-1.396,1.349-2.318,1.752
				c-0.99,0.433-2.679,0.759-4.17,1.048c-1.67,0.324-2.717,0.538-3.19,0.842c-2.128,1.368-0.801,5.451-0.168,6.774
				c0.338,0.708,0.826,1.147,1.217,1.5c0.511,0.461,0.581,0.572,0.498,0.794c-0.135,0.361-0.019,0.613,0.063,0.729
				c0.166,0.239,0.456,0.36,0.863,0.36c0.893,0,2.555-0.631,3.128-1.62c0.58-1.002,1.301-1.011,2.935-0.301
				c1.595,0.692,1.942,1.851,2.467,3.606l0.054,0.18c0.411,1.369,1.636,2.456,2.933,3.608c0.625,0.556,1.273,1.13,1.872,1.768
				c1.779,1.898,5.792,4.248,7.665,5.227c1.39,0.725,2.6,1.541,4.444,4.882c0.537,0.967,0.613,1.836,0.232,2.582
				c-0.675,1.312-2.632,2.098-4.27,2.293c-1.535,0.184-2.231-0.117-2.964-0.44c-0.431-0.19-0.876-0.388-1.48-0.483
				c-1.01-0.161-1.886,0.5-2.154,1.541c-0.233,0.904,0.105,1.757,0.86,2.17c0.389,0.214,1.001,0.589,1.703,1.021
				c1.81,1.112,4.063,2.497,5.103,2.733c0.18,0.041,0.356,0.062,0.524,0.062c0.584,0,1.071-0.247,1.373-0.697
				c0.353-0.521,0.396-1.236,0.121-1.911c-0.344-0.825-0.265-1.274,0.392-2.288c0.161-0.253,0.257-0.253,0.303-0.253
				c0.096,0,0.231,0.041,0.377,0.085c0.368,0.107,0.928,0.222,1.436,0.045c0.753-0.268,1.339-1.197,1.902-2.099
				c0.364-0.576,0.739-1.172,1.075-1.44c0.401-0.321,0.586-0.86,0.517-1.521c-0.119-1.139-0.961-2.471-1.834-2.908
				c-0.244-0.118-0.252-0.239-0.257-0.292c-0.03-0.333,0.393-1.002,1.25-1.636c0.825-0.608,2.206,0.702,2.979,1.916
				c0.25,0.392,0.539,0.589,0.858,0.589c0.2,0,0.578-0.085,0.824-0.654C41.691,31.258,41.743,29.875,41.064,29.147z"/>
			<path d="M12.835,24.565c-0.199,0-0.488,0.073-0.739,0.426L11.881,25.3c-0.485,0.706-0.835,1.215-1.936,1.354
				C9.1,26.759,8.563,27.08,8.353,27.603c-0.229,0.568-0.023,1.252,0.609,2.032c0.395,0.486,0.748,2.366,0.119,3.854
				c-0.515,1.216-0.305,1.948-0.04,2.349c0.233,0.354,0.718,0.771,1.705,0.771c0.369,0,0.961-0.121,1.39-0.822
				c0.104,0.037,0.218,0.056,0.341,0.056c0.583,0,1.381-0.443,1.781-1.292c0.565-1.202,0.529-5.082,0.351-6.738
				C14.474,26.556,13.874,24.565,12.835,24.565z"/>
		</g>
	</g>
</g>
</svg>