<?xml version="1.0" encoding="iso-8859-1"?>
<!-- Uploaded to: SVG Repo, www.svgrepo.com, Generator: SVG Repo Mixer Tools -->
<!DOCTYPE svg PUBLIC "-//W3C//DTD SVG 1.1//EN" "http://www.w3.org/Graphics/SVG/1.1/DTD/svg11.dtd">
<svg fill="#000000" version="1.1" id="Capa_1" xmlns="http://www.w3.org/2000/svg" xmlns:xlink="http://www.w3.org/1999/xlink" 
	 width="800px" height="800px" viewBox="0 0 364.882 364.882"
	 xml:space="preserve">
<g>
	<g>
		<g>
			<path d="M193.743,116.151h-22.458v67.35h22.458V116.151z"/>
		</g>
		<g>
			<path d="M193.743,194.922h-22.458v56.457h22.458V194.922z"/>
		</g>
		<g>
			<path d="M364.754,85.505c-0.865-13.514-5.717-22.491-13.373-24.608l-3.32-0.909l0.096,3.438
				c0.709,28.898-69.733,74.003-80.356,80.623c-19.665-15.192-43.036-24.865-67.62-27.976l-2.864-0.369v141.11h0.03l-0.03,13.396
				h129.59v29.598H38.104V270.21H167.73v-4.491l-0.09-0.421c-0.054-0.192-0.096-5.801-0.096-5.933v-2.546h0.18V115.691l-2.852,0.375
				c-24.632,3.123-48.026,12.814-67.698,28.033c-10.628-6.635-81.143-51.725-80.446-80.68l0.078-3.438l-3.309,0.91
				C5.835,63.015,0.965,71.998,0.125,85.523c-1.808,29.469,15.942,79.765,61.044,100.079
				c-11.847,20.872-18.104,44.579-18.104,68.659v2.545h119.567v8.287H33.013v39.806H332.01v-39.806H202.408v-8.287h119.555v-2.545
				c0-24.08-6.269-47.805-18.14-68.701C348.865,165.222,366.585,114.953,364.754,85.505z"/>
		</g>
	</g>
</g>
</svg>