<?xml version="1.0" encoding="iso-8859-1"?>
<!-- Uploaded to: SVG Repo, www.svgrepo.com, Generator: SVG Repo Mixer Tools -->
<!DOCTYPE svg PUBLIC "-//W3C//DTD SVG 1.1//EN" "http://www.w3.org/Graphics/SVG/1.1/DTD/svg11.dtd">
<svg fill="#000000" version="1.1" id="Capa_1" xmlns="http://www.w3.org/2000/svg" xmlns:xlink="http://www.w3.org/1999/xlink" 
	 width="800px" height="800px" viewBox="0 0 40.825 40.824"
	 xml:space="preserve">
<g>
	<path d="M39.325,15.694c0.829,0,1.5-0.671,1.5-1.5c0-0.829-0.671-1.5-1.5-1.5h-8.667v-0.751c0-0.829-0.671-1.5-1.5-1.5H11.991
		c-0.829,0-1.5,0.671-1.5,1.5v4.583H5.729c-0.505,0-0.977,0.254-1.254,0.677l-4.229,6.439c-0.303,0.459-0.328,1.05-0.066,1.535
		c0.262,0.484,0.769,0.789,1.32,0.789h0.122c0.036,2.439,2.026,4.414,4.475,4.414c1.196,0,2.278-0.477,3.083-1.242
		c0.804,0.767,1.886,1.242,3.083,1.242c1.197,0,2.278-0.477,3.083-1.242c0.804,0.767,1.886,1.242,3.083,1.242
		c1.197,0,2.278-0.477,3.083-1.242c0.805,0.767,1.887,1.242,3.083,1.242s2.277-0.477,3.083-1.242
		c0.805,0.767,1.887,1.242,3.083,1.242c2.472,0,4.479-2.01,4.479-4.479c0-0.06-0.016-0.113-0.019-0.173
		c0.181-0.112,0.343-0.256,0.462-0.438l4.229-6.439c0.304-0.46,0.328-1.05,0.066-1.536c-0.263-0.485-0.771-0.788-1.32-0.788h-8
		v-0.832L39.325,15.694L39.325,15.694z M6.097,27.381c-0.816,0-1.481-0.666-1.481-1.479c0-0.816,0.665-1.48,1.481-1.48
		s1.48,0.664,1.48,1.48C7.577,26.717,6.912,27.381,6.097,27.381z M12.262,27.381c-0.816,0-1.481-0.666-1.481-1.479
		c0-0.816,0.665-1.48,1.481-1.48s1.48,0.664,1.48,1.48C13.742,26.717,13.079,27.381,12.262,27.381z M18.427,27.381
		c-0.816,0-1.481-0.666-1.481-1.479c0-0.816,0.665-1.48,1.481-1.48s1.48,0.664,1.48,1.48C19.907,26.717,19.244,27.381,18.427,27.381
		z M24.592,27.381c-0.815,0-1.48-0.666-1.48-1.479c0-0.816,0.665-1.48,1.48-1.48s1.479,0.664,1.479,1.48
		C26.072,26.717,25.409,27.381,24.592,27.381z M30.757,27.381c-0.816,0-1.48-0.666-1.48-1.479c0-0.816,0.665-1.48,1.48-1.48
		s1.479,0.664,1.479,1.48C32.237,26.717,31.574,27.381,30.757,27.381z"/>
</g>
</svg>