<?xml version="1.0" encoding="iso-8859-1"?>
<!-- Uploaded to: SVG Repo, www.svgrepo.com, Generator: SVG Repo Mixer Tools -->
<svg fill="#000000" height="800px" width="800px" version="1.1" id="Layer_1" xmlns="http://www.w3.org/2000/svg" xmlns:xlink="http://www.w3.org/1999/xlink" 
	 viewBox="0 0 512 512" xml:space="preserve">
<g>
	<g>
		<path d="M436.915,80.671c-2.972-3.332-7.226-5.236-11.692-5.236h-265.13c-4.464,0-8.718,1.905-11.691,5.236
			c-2.974,3.332-4.384,7.773-3.878,12.21c6.766,59.382,13.657,132.045,20.322,202.315c6.678,70.415,13.582,143.229,20.384,202.906
			c0.901,7.917,7.602,13.897,15.57,13.897h183.717c7.968,0,14.667-5.98,15.569-13.897c6.803-59.683,13.709-132.504,20.388-202.928
			c6.662-70.262,13.553-142.916,20.32-202.293C441.3,88.444,439.889,84.003,436.915,80.671z"/>
	</g>
</g>
<g>
	<g>
		<path d="M186.662,4.59C183.724,1.652,179.736,0,175.581,0H86.776c-8.655,0-15.671,7.017-15.671,15.671
			c0,8.655,7.017,15.671,15.671,15.671h82.313l12.749,12.749h44.325L186.662,4.59z"/>
	</g>
</g>
</svg>