<?xml version="1.0" encoding="iso-8859-1"?>
<!-- Uploaded to: SVG Repo, www.svgrepo.com, Generator: SVG Repo Mixer Tools -->
<svg fill="#000000" height="800px" width="800px" version="1.1" id="Layer_1" xmlns="http://www.w3.org/2000/svg" xmlns:xlink="http://www.w3.org/1999/xlink" 
	 viewBox="0 0 512 512" xml:space="preserve">
<g>
	<g>
		<g>
			<path d="M181.534,65.069c-49.835,0-90.368,43.435-90.368,96.853c0,23.339,7.637,45.205,21.419,62.464
				c2.88-10.069,7.637-19.584,14.208-28.011c2.347-3.029,4.928-5.781,7.595-8.384c0.768-0.747,1.6-1.429,2.411-2.133
				c2.005-1.813,4.075-3.52,6.229-5.077c0.875-0.64,1.771-1.259,2.667-1.856c2.368-1.6,4.821-3.008,7.317-4.309
				c0.683-0.341,1.323-0.725,2.027-1.067c6.677-3.2,13.739-5.376,21.013-6.464c0.448-0.064,0.875-0.085,1.323-0.149
				c3.051-0.405,6.101-0.597,9.195-0.619c1.067,0,2.112,0.043,3.2,0.064c1.109,0.043,2.197-0.021,3.307,0.085
				c1.301-1.963,2.901-3.627,4.331-5.44c1.216-1.536,2.325-3.136,3.648-4.565c2.069-2.261,4.352-4.224,6.635-6.208
				c1.493-1.301,2.88-2.709,4.48-3.883c2.517-1.877,5.248-3.392,7.957-4.928c1.643-0.939,3.136-2.027,4.843-2.837
				c4.288-2.048,8.768-3.669,13.419-4.864c0.256-0.085,0.512-0.213,0.789-0.299c0.021,0,0.064,0,0.107-0.021
				c1.493-0.363,3.008-0.683,4.501-0.96c0.171-1.131,0.533-2.219,0.725-3.349c0.363-2.027,0.832-3.989,1.28-5.995
				c1.067-4.565,2.411-9.067,4.011-13.483c0.683-1.856,1.28-3.755,2.048-5.568c0.256-0.597,0.405-1.259,0.683-1.856
				C235.465,78.765,209.63,65.069,181.534,65.069z"/>
			<path d="M0,0v512h512V0H0z M426.667,426.667c-11.797,0-21.333-9.557-21.333-21.333c0-11.755-9.557-21.333-21.333-21.333
				s-21.333,9.579-21.333,21.333c0,11.776-9.536,21.333-21.333,21.333c-11.797,0-21.333-9.557-21.333-21.333
				c0-26.56,16.277-49.387,39.381-59.051C352.939,330.859,337.728,320,320,320c-23.531,0-42.667,19.136-42.667,42.667
				c0,11.776-9.536,21.333-21.333,21.333s-21.333-9.557-21.333-21.333c0-47.061,38.272-85.333,85.333-85.333
				c40.875,0,75.029,28.907,83.328,67.307C429.141,352.896,448,376.832,448,405.333C448,417.109,438.464,426.667,426.667,426.667z
				 M469.333,234.667c-11.797,0-21.333-9.557-21.333-21.333c0-21.312-15.851-38.656-35.349-38.656s-35.349,17.344-35.349,38.656
				c0,11.776-9.557,21.333-21.333,21.333c-11.797,0-21.333-9.557-21.333-21.333c0-44.053,33.856-79.851,75.84-81.088
				c-6.997-29.696-31.829-51.819-61.547-51.819c-21.781,0-41.024,11.883-52.501,29.931l-0.619,1.003
				c-1.92,3.136-3.563,6.464-4.992,9.92c-0.533,1.28-0.917,2.603-1.365,3.904c-0.896,2.56-1.664,5.163-2.261,7.872
				c-0.299,1.28-0.576,2.581-0.811,3.883c0,0.107,0,0.192-0.021,0.277c10.731,4.501,20.608,11.349,28.672,20.565
				c7.744,8.875,6.848,22.336-2.027,30.101c-8.853,7.723-22.336,6.848-30.101-2.005c-6.059-6.912-13.995-10.795-22.315-11.627
				c-3.797-0.384-7.531-0.299-11.136,0.597c-2.645,0.661-5.163,1.707-7.552,2.987c-0.533,0.277-1.024,0.661-1.557,0.981
				c-1.813,1.109-3.584,2.347-5.184,3.776c-0.491,0.427-0.96,0.917-1.429,1.365c-1.557,1.536-2.987,3.221-4.267,5.056
				c-0.341,0.469-0.683,0.939-1.003,1.429c-1.429,2.24-2.667,4.608-3.648,7.168c-0.085,0.213-0.213,0.405-0.299,0.619l-0.363,1.024
				c-2.325,6.933-2.88,14.656-1.173,22.4c2.539,11.499-4.715,22.891-16.213,25.451c-1.557,0.341-3.093,0.491-4.629,0.491
				c-9.771,0-18.603-6.741-20.821-16.704c-1.536-6.955-1.877-13.867-1.664-20.693c-7.296,1.792-14.101,5.867-19.2,12.395
				c-1.728,2.219-3.157,4.629-4.373,7.147c-0.32,0.661-0.491,1.344-0.768,2.027c-0.811,1.941-1.557,3.904-2.048,5.973
				c-0.149,0.661-0.235,1.344-0.363,2.027c-0.427,2.197-0.704,4.416-0.768,6.677v1.515c0.043,2.56,0.277,5.12,0.768,7.68
				c0.149,0.704,0.213,1.387,0.384,2.069l0.256,1.195c2.005,7.189,5.973,13.824,11.84,18.923c8.875,7.744,9.813,21.227,2.069,30.123
				c-4.245,4.821-10.155,7.296-16.085,7.296c-4.992,0-9.984-1.728-14.037-5.248c-9.6-8.363-16.469-18.837-21.12-30.144
				c-17.536,3.456-33.045,14.208-42.667,30.955c-18.432,32.107-7.317,79.275,23.339,98.965c9.92,6.379,12.779,19.584,6.4,29.504
				c-4.075,6.336-10.944,9.792-17.963,9.792c-3.968,0-7.936-1.088-11.52-3.392c-50.24-32.32-67.285-103.808-37.248-156.117
				c10.005-17.451,24.448-31.296,41.195-40.661c-18.773-24.405-29.248-54.699-29.248-86.976c0-76.928,59.691-139.52,133.056-139.52
				c36.8,0,71.701,16.555,96.597,44.224c18.837-17.749,43.499-28.864,70.784-28.864c57.387,0,104,47.893,106.005,107.435
				c21.461,14.507,35.733,39.573,35.733,68.139C490.667,225.109,481.131,234.667,469.333,234.667z"/>
		</g>
	</g>
</g>
</svg>